<svg width="108" height="68" viewBox="0 0 108 68" fill="none" xmlns="http://www.w3.org/2000/svg">
<path d="M52.1017 54.6263V66.8855H2.97193V57.1339L28.0476 33.4513C30.71 30.9128 32.5055 28.7457 33.4343 26.9502C34.363 25.0927 34.8274 23.2662 34.8274 21.4707C34.8274 18.8702 33.9296 16.8889 32.134 15.5268C30.4004 14.1028 27.8309 13.3907 24.4256 13.3907C21.5775 13.3907 19.008 13.948 16.7171 15.0624C14.4263 16.115 12.5069 17.7248 10.959 19.8918L0 12.8335C2.53853 9.05666 6.03674 6.11568 10.4946 4.01056C14.9525 1.84352 20.0606 0.76001 25.8187 0.76001C30.6481 0.76001 34.8583 1.5649 38.4494 3.1747C42.1024 4.72258 44.9195 6.95154 46.9008 9.86155C48.944 12.7097 49.9656 16.084 49.9656 19.9847C49.9656 23.5139 49.2227 26.8263 47.7367 29.9221C46.2507 33.0179 43.3717 36.547 39.0995 40.5096L24.147 54.6263H52.1017Z" fill="black"/>
<path d="M80.5992 26.3001C89.7627 26.3001 96.5114 28.1266 100.846 31.7796C105.241 35.4326 107.439 40.3239 107.439 46.4535C107.439 50.4161 106.449 54.0381 104.468 57.3196C102.486 60.5392 99.4524 63.1397 95.366 65.121C91.3415 67.0403 86.3573 68 80.4135 68C75.8317 68 71.3119 67.4118 66.854 66.2354C62.458 64.9971 58.7121 63.2635 55.6164 61.0345L61.5602 49.5183C64.0369 51.3758 66.885 52.8308 70.1046 53.8833C73.3242 54.874 76.6366 55.3693 80.042 55.3693C83.8188 55.3693 86.7907 54.6263 88.9578 53.1403C91.1248 51.6544 92.2083 49.5802 92.2083 46.9179C92.2083 44.1317 91.0629 42.0266 88.772 40.6025C86.5431 39.1784 82.6424 38.4664 77.07 38.4664H60.4458L63.7892 1.87448H103.446V13.948H76.327L75.3054 26.3001H80.5992Z" fill="black"/>
</svg>
