<svg width="103" height="28" viewBox="0 0 103 28" fill="none" xmlns="http://www.w3.org/2000/svg">
<path d="M0.952393 7.25535H3.59352V13.4455H11.9021V7.25535H14.5432V21.8366H11.9021V15.729H3.59352V21.8366H0.952393V7.25535Z" fill="black"/>
<path d="M25.9238 22.0016C24.4748 22.0016 23.1726 21.6807 22.0171 21.0387C20.8616 20.3968 19.9537 19.5164 19.2935 18.3976C18.6515 17.2604 18.3305 15.9766 18.3305 14.546C18.3305 13.1153 18.6515 11.8406 19.2935 10.7218C19.9537 9.58468 20.8616 8.7043 22.0171 8.0807C23.1726 7.43876 24.4748 7.11779 25.9238 7.11779C27.3727 7.11779 28.6658 7.43876 29.8029 8.0807C30.9584 8.7043 31.8571 9.58468 32.4991 10.7218C33.1594 11.8406 33.4895 13.1153 33.4895 14.546C33.4895 15.9766 33.1594 17.2604 32.4991 18.3976C31.8571 19.5164 30.9584 20.3968 29.8029 21.0387C28.6658 21.6807 27.3727 22.0016 25.9238 22.0016ZM25.9238 19.6906C26.8592 19.6906 27.6937 19.4797 28.4273 19.0579C29.1793 18.6177 29.7662 18.0124 30.1881 17.2421C30.6099 16.4534 30.8209 15.5547 30.8209 14.546C30.8209 13.5372 30.6099 12.6476 30.1881 11.8773C29.7662 11.0886 29.1793 10.4834 28.4273 10.0615C27.6937 9.6397 26.8592 9.42878 25.9238 9.42878C24.9884 9.42878 24.1447 9.6397 23.3927 10.0615C22.6591 10.4834 22.0721 11.0886 21.632 11.8773C21.2101 12.6476 20.9992 13.5372 20.9992 14.546C20.9992 15.5547 21.2101 16.4534 21.632 17.2421C22.0721 18.0124 22.6591 18.6177 23.3927 19.0579C24.1447 19.4797 24.9884 19.6906 25.9238 19.6906Z" fill="black"/>
<path d="M48.5122 7.25535V21.8366H46.1462V17.2146H41.9094H41.6067L38.4154 21.8366H35.5817L39.1307 16.8569C38.0302 16.5268 37.1865 15.9857 36.5996 15.2337C36.0127 14.4634 35.7192 13.5097 35.7192 12.3725C35.7192 10.7035 36.2878 9.43795 37.425 8.57591C38.5621 7.69554 40.1303 7.25535 42.1295 7.25535H48.5122ZM38.4154 12.4551C38.4154 13.4271 38.718 14.1516 39.3233 14.6285C39.9469 15.087 40.8731 15.3163 42.1019 15.3163H46.1462V9.56633H42.212C39.6809 9.56633 38.4154 10.5292 38.4154 12.4551Z" fill="black"/>
<path d="M61.0934 7.75056C62.4506 7.75056 63.6612 8.05319 64.725 8.65845C65.7887 9.26371 66.6141 10.1074 67.201 11.1895C67.8063 12.2533 68.1089 13.473 68.1089 14.8486C68.1089 16.2608 67.7879 17.5172 67.146 18.6177C66.5224 19.6998 65.6328 20.5435 64.4773 21.1488C63.3402 21.754 62.038 22.0566 60.5707 22.0566C58.0946 22.0566 56.178 21.213 54.8207 19.5256C53.4818 17.8198 52.8124 15.4263 52.8124 12.345C52.8124 9.35541 53.4268 7.01692 54.6557 5.32953C55.8845 3.62381 57.7645 2.49583 60.2956 1.94559L66.9534 0.459961L67.3386 2.88099L61.2035 4.20155C59.296 4.6234 57.8745 5.3387 56.9391 6.34747C56.0037 7.35623 55.4719 8.80518 55.3435 10.6943C55.9671 9.75892 56.7741 9.03444 57.7645 8.52089C58.7549 8.00734 59.8645 7.75056 61.0934 7.75056ZM60.6257 19.8557C61.5611 19.8557 62.3865 19.6448 63.1018 19.2229C63.8354 18.8011 64.404 18.2234 64.8075 17.4897C65.211 16.7377 65.4127 15.8849 65.4127 14.9311C65.4127 13.4822 64.9726 12.3175 64.0922 11.4371C63.2118 10.5568 62.0563 10.1166 60.6257 10.1166C59.1951 10.1166 58.0304 10.5568 57.1317 11.4371C56.2513 12.3175 55.8112 13.4822 55.8112 14.9311C55.8112 15.8849 56.0129 16.7377 56.4164 17.4897C56.8383 18.2234 57.416 18.8011 58.1497 19.2229C58.8833 19.6448 59.7087 19.8557 60.6257 19.8557Z" fill="black"/>
<path d="M79.6118 7.11779C81.0241 7.11779 82.2896 7.42959 83.4084 8.05319C84.5272 8.67679 85.3984 9.54799 86.022 10.6668C86.664 11.7856 86.9849 13.0787 86.9849 14.546C86.9849 16.0132 86.664 17.3155 86.022 18.4526C85.3984 19.5714 84.5272 20.4426 83.4084 21.0662C82.2896 21.6898 81.0241 22.0016 79.6118 22.0016C78.5663 22.0016 77.6034 21.7999 76.7231 21.3964C75.861 20.9929 75.1274 20.4059 74.5221 19.6356V27.1738H71.881V7.25535H74.4121V9.56633C74.999 8.75933 75.7418 8.15407 76.6405 7.75056C77.5392 7.32872 78.5297 7.11779 79.6118 7.11779ZM79.3917 19.6906C80.3271 19.6906 81.1616 19.4797 81.8953 19.0579C82.6472 18.6177 83.2342 18.0124 83.656 17.2421C84.0962 16.4534 84.3163 15.5547 84.3163 14.546C84.3163 13.5372 84.0962 12.6476 83.656 11.8773C83.2342 11.0886 82.6472 10.4834 81.8953 10.0615C81.1616 9.6397 80.3271 9.42878 79.3917 9.42878C78.4746 9.42878 77.6401 9.64887 76.8881 10.0891C76.1545 10.5109 75.5676 11.107 75.1274 11.8773C74.7055 12.6476 74.4946 13.5372 74.4946 14.546C74.4946 15.5547 74.7055 16.4534 75.1274 17.2421C75.5492 18.0124 76.1361 18.6177 76.8881 19.0579C77.6401 19.4797 78.4746 19.6906 79.3917 19.6906Z" fill="black"/>
<path d="M102.031 7.25535V21.8366H99.665V17.2146H95.4282H95.1256L91.9342 21.8366H89.1005L92.6495 16.8569C91.5491 16.5268 90.7054 15.9857 90.1185 15.2337C89.5315 14.4634 89.2381 13.5097 89.2381 12.3725C89.2381 10.7035 89.8067 9.43795 90.9438 8.57591C92.081 7.69554 93.6491 7.25535 95.6483 7.25535H102.031ZM91.9342 12.4551C91.9342 13.4271 92.2369 14.1516 92.8421 14.6285C93.4657 15.087 94.392 15.3163 95.6208 15.3163H99.665V9.56633H95.7309C93.1998 9.56633 91.9342 10.5292 91.9342 12.4551Z" fill="black"/>
</svg>
